<?xml version="1.0" encoding="iso-8859-1"?>
<!-- Generator: Adobe Illustrator 18.1.1, SVG Export Plug-In . SVG Version: 6.00 Build 0)  -->
<svg version="1.1" id="Capa_1" xmlns="http://www.w3.org/2000/svg" xmlns:xlink="http://www.w3.org/1999/xlink" x="0px" y="0px"
	 viewBox="0 0 16.598 16.598" style="enable-background:new 0 0 16.598 16.598;" xml:space="preserve">
<g>
	<g>
		<g>
			<path style="fill:#030104;" d="M16.104,16.206c-0.11,0-0.22-0.037-0.31-0.11l-5.175-4.208H0.491C0.22,11.888,0,11.666,0,11.395
				V0.883c0-0.271,0.22-0.491,0.491-0.491h15.613c0.271,0,0.491,0.219,0.491,0.491v10.512c0,0.271-0.22,0.493-0.491,0.493h-1.081
				l1.515,3.593c0.039,0.069,0.06,0.15,0.06,0.235c0,0.271-0.22,0.49-0.491,0.49C16.107,16.206,16.104,16.206,16.104,16.206z
				 M0.982,10.905h9.813c0.112,0,0.223,0.038,0.311,0.11l3.78,3.077l-1.056-2.506c-0.064-0.152-0.048-0.325,0.042-0.463
				c0.092-0.138,0.245-0.219,0.41-0.219h1.33v-9.53H0.982V10.905z"/>
		</g>
	</g>
</g>
<g>
</g>
<g>
</g>
<g>
</g>
<g>
</g>
<g>
</g>
<g>
</g>
<g>
</g>
<g>
</g>
<g>
</g>
<g>
</g>
<g>
</g>
<g>
</g>
<g>
</g>
<g>
</g>
<g>
</g>
</svg>
